Coordinates
version=1
nRows=8
nColumns=36
inDegrees=yes

Units are S.I. units (second, meters, Newtons, ...)
If the header above contains a line with 'inDegrees', this indicates whether rotational values are in degrees (yes) or radians (no).

endheader
time	pelvis_tilt	pelvis_list	pelvis_rotation	pelvis_tx	pelvis_ty	pelvis_tz	hip_flexion_r	hip_adduction_r	hip_rotation_r	knee_angle_r	knee_angle_r_beta	ankle_angle_r	subtalar_angle_r	mtp_angle_r	hip_flexion_l	hip_adduction_l	hip_rotation_l	knee_angle_l	knee_angle_l_beta	ankle_angle_l	subtalar_angle_l	mtp_angle_l	lumbar_extension	lumbar_bending	lumbar_rotation	arm_flex_r	arm_add_r	arm_rot_r	elbow_flex_r	pro_sup_r	arm_flex_l	arm_add_l	arm_rot_l	elbow_flex_l	pro_sup_l
      1.92916670	    -21.21632838	      2.80692604	     -1.88148447	      0.30270950	      1.19403459	     -0.07323387	     24.04096401	     -2.23804550	    -14.94639422	      0.59018677	      0.01030070	    -36.60331227	      4.11487008	     -7.49999987	     26.86364681	     -2.08204844	     -6.49874037	      2.31260278	      0.04036253	    -31.97059840	      9.17154466	     -7.49999987	     -1.33384129	     -5.26378711	     -2.37527997	    122.18518665	    -46.86903924	     51.44264317	     96.38931389	     77.93862705	    126.27660930	    -51.42436540	     64.96908247	     87.88879927	     73.48326144
      1.93333330	    -21.26473836	      2.57545667	     -1.68920972	      0.30314053	      1.19383828	     -0.07293884	     24.28073851	     -2.23618450	    -15.44910661	      0.61331211	      0.01070432	    -35.99890742	      4.55107508	     -7.49999987	     27.22936140	     -2.34591864	     -6.58853753	      2.22755412	      0.03887815	    -31.91644836	      9.16411986	     -7.49999987	     -1.59722250	     -5.35070036	     -2.05167677	    122.29549709	    -48.35227895	     51.34346950	     97.09967622	     79.29321250	    125.40923920	    -49.00097176	     63.49398187	     86.35463261	     74.23694436
      1.93750000	    -21.17147958	      2.23104376	     -1.30728366	      0.30730406	      1.18745294	     -0.06977248	     24.12743388	     -2.07222434	    -15.53708498	      0.59030879	      0.01030283	    -35.35552115	      4.57999807	     -7.49999987	     27.21925695	     -2.66924323	     -6.71762247	      1.95407774	      0.03410509	    -31.70604727	      9.47213378	     -7.49999987	     -1.78424396	     -5.34981842	     -2.28879697	    121.19421823	    -49.55051409	     50.43117132	     98.16480418	     78.24318366	    125.33284397	    -47.63817255	     63.74101150	     85.81871305	     73.59677232
      1.94166670	    -21.24326015	      1.93914626	     -1.16768972	      0.30311477	      1.18171332	     -0.07390064	     24.38516350	     -2.10578664	    -15.27815322	      0.60320241	      0.01052787	    -34.37598716	      4.72881881	     -7.49999987	     27.59217891	     -2.95333756	     -6.83483367	      2.09899621	      0.03663439	    -30.87734737	      9.24037795	     -7.49999987	     -1.81743859	     -5.38622932	     -1.42600950	    120.97532308	    -51.86367999	     50.10605287	     99.25210020	     78.22393535	    124.55028850	    -45.03253765	     63.29203078	     83.98054742	     73.88460658
      1.94583330	    -21.29983905	      1.66986797	     -0.82375196	      0.30313254	      1.18142054	     -0.07503597	     24.56072868	     -2.16409857	    -15.17352253	      0.53242135	      0.00929251	    -33.52987332	      5.18298460	     -7.49999987	     27.90940506	     -3.05817625	     -7.00981718	      2.15225210	      0.03756389	    -30.31775317	      8.74713233	     -7.49999987	     -1.84541446	     -5.29147892	     -1.02939857	    119.85594251	    -53.24937691	     49.19529553	     99.84713973	     79.31443211	    122.95883183	    -43.03701396	     61.27440442	     82.18328361	     75.94658325
      1.95000000	    -21.37429372	      1.69196769	     -0.77402317	      0.30319620	      1.17838055	     -0.07498228	     24.73393071	     -2.32346990	    -15.30333638	      0.55240902	      0.00964136	    -32.97516202	      4.90552232	     -7.49999987	     28.11109441	     -3.00025628	     -7.55556599	      2.22946045	      0.03891143	    -29.57931885	      8.35567019	     -7.49999987	     -1.97453602	     -5.24485859	     -1.14783953	    119.03421900	    -53.42811989	     48.96740632	    100.10100060	     78.12153340	    122.19400246	    -43.35224940	     60.81845394	     82.36218702	     75.01022832
      1.95416670	    -21.22110125	      1.69268386	     -0.65154245	      0.31133554	      1.17768485	     -0.07591294	     24.57025931	     -2.43841864	    -15.97275672	      0.49600194	      0.00865687	    -31.88628959	      4.84485218	     -7.49999987	     27.76317187	     -2.94088084	     -7.95916286	      2.08691362	      0.03642351	    -28.90326607	      7.95973926	     -7.49999987	     -1.89579519	     -5.44210612	     -1.08296537	    115.79910617	    -54.14918392	     46.55269145	    101.56132652	     78.34509815	    119.77482406	    -42.93289652	     58.73908815	     83.02723254	     75.47303061
      1.95833330	    -21.31068843	      1.92855453	     -0.28044633	      0.30705213	      1.17416821	     -0.07149115	     24.75678803	     -2.76809266	    -16.24989279	      0.42196373	      0.00736466	    -31.30135129	      4.64225309	     -7.49999987	     27.93213568	     -2.68270718	     -8.30316981	      2.10447710	      0.03673005	    -28.66316441	      7.35554996	     -7.49999987	     -1.92375005	     -6.27453437	     -1.23604054	    113.36244225	    -55.31709651	     44.64443133	    102.99357083	     78.07148891	    119.09172782	    -42.15280535	     59.03682286	     82.87626755	     75.63948383
